<?xml version="1.0" encoding="UTF-8"?>
<svg version="1.1" xmlns="http://www.w3.org/2000/svg" width="512" height="512">
<path d="M0 0 C3.2895932 1.53580929 5.19508112 4.6030328 7.34960938 7.42602539 C7.87224365 8.09496826 8.39487793 8.76391113 8.93334961 9.453125 C13.16749263 14.89901499 17.30241162 20.42153796 21.42236328 25.95410156 C25.05622534 30.83056719 28.76604483 35.63849735 32.54492188 40.40332031 C35.25615265 43.82410049 37.93143485 47.26895759 40.58007812 50.73852539 C41.21574707 51.56755371 41.85141602 52.39658203 42.50634766 53.25073242 C43.76098522 54.88854394 45.01079871 56.53006406 46.25537109 58.17553711 C46.82400879 58.91562012 47.39264648 59.65570313 47.97851562 60.41821289 C48.73757202 61.41570557 48.73757202 61.41570557 49.51196289 62.43334961 C49.95338623 62.90530762 50.39480957 63.37726563 50.84960938 63.86352539 C51.50960937 63.86352539 52.16960937 63.86352539 52.84960938 63.86352539 C54.61618739 61.96407655 56.27074815 60.05458722 57.91210938 58.05102539 C58.40525635 57.45862061 58.89840332 56.86621582 59.40649414 56.25585938 C63.12633834 51.7775246 66.79637167 47.25811269 70.47070312 42.74243164 C73.72817159 38.80030642 77.06793032 34.93143591 80.40576172 31.05737305 C84.19155235 26.65447805 87.88317608 22.18278945 91.54492188 17.67602539 C94.26295244 14.35910673 97.01873185 11.07595133 99.78710938 7.80102539 C100.26027588 7.24020264 100.73344238 6.67937988 101.22094727 6.1015625 C103.04117251 3.95321379 104.85759672 1.85553804 106.84960938 -0.13647461 C110.50208482 0.21174145 113.13007716 1.38867465 116.23632812 3.27758789 C117.07856934 3.78346436 117.92081055 4.28934082 118.78857422 4.81054688 C119.69559082 5.36427979 120.60260742 5.9180127 121.53710938 6.48852539 C123.52197859 7.68127706 125.50769089 8.87262658 127.49414062 10.06274414 C129.05382568 10.99932861 129.05382568 10.99932861 130.64501953 11.95483398 C135.97185089 15.1275574 141.34832416 18.21309533 146.72460938 21.30102539 C155.11540244 26.12850314 163.49229839 30.97830728 171.84960938 35.86352539 C184.48696688 43.24780477 197.16636343 50.55842735 209.84960938 57.86352539 C223.9286453 65.97254875 237.99802501 74.09667109 252.02392578 82.29736328 C256.95181173 85.17803717 261.88725663 88.04260287 266.84960938 90.86352539 C267.30756982 93.46355887 267.2632725 95.22431599 265.80810547 97.47290039 C264.26985858 99.3236783 262.67278481 101.09821919 261.03710938 102.86352539 C259.83321782 104.20528591 258.63010512 105.54774563 257.42773438 106.89086914 C256.51991211 107.8941626 256.51991211 107.8941626 255.59375 108.91772461 C253.09696337 111.70319345 250.68876184 114.5585791 248.28710938 117.42602539 C244.46025828 121.97071687 240.60052025 126.48562894 236.72460938 130.98852539 C232.42777838 135.98383228 228.21372377 141.03622169 224.08007812 146.16821289 C221.07773545 149.79626271 217.95065622 153.31947186 214.84960938 156.86352539 C230.02960938 154.88352539 245.20960938 152.90352539 260.84960938 150.86352539 C260.84960938 152.18352539 260.84960938 153.50352539 260.84960938 154.86352539 C260.10614258 155.28537109 259.36267578 155.7072168 258.59667969 156.1418457 C255.09623844 158.12992374 251.59746639 160.12090511 248.09960938 162.11352539 C247.46823059 162.4730127 246.83685181 162.8325 246.18634033 163.20288086 C236.94606702 168.46843567 227.77432658 173.8295936 218.71777344 179.4074707 C217.96463867 179.86734375 217.21150391 180.3272168 216.43554688 180.80102539 C215.78634277 181.20192383 215.13713867 181.60282227 214.46826172 182.01586914 C212.84960938 182.86352539 212.84960938 182.86352539 210.84960938 182.86352539 C210.84960938 211.24352539 210.84960938 239.62352539 210.84960938 268.86352539 C203.25960938 273.15352539 195.66960937 277.44352539 187.84960938 281.86352539 C183.90437371 284.1440355 179.96460362 286.42840955 176.03710938 288.73852539 C167.6594093 293.6453848 159.26332396 298.51867762 150.84960938 303.36352539 C142.50155289 308.17191667 134.16712597 313.00249656 125.84960938 317.86352539 C117.53209123 322.72455512 109.19753573 327.5549064 100.84960938 332.36352539 C92.17090302 337.36380946 83.50251006 342.38120065 74.84960938 347.42602539 C73.88925781 347.98547852 72.92890625 348.54493164 71.93945312 349.12133789 C71.02292969 349.65629883 70.10640625 350.19125977 69.16210938 350.74243164 C68.2778125 351.25435059 67.39351563 351.76626953 66.48242188 352.29370117 C64.68219349 353.36709402 62.9065363 354.48250252 61.15429688 355.63256836 C60.290625 356.19218262 59.42695313 356.75179688 58.53710938 357.32836914 C57.39822266 358.09395142 57.39822266 358.09395142 56.23632812 358.875 C53.0060109 360.21292497 51.19458088 359.78352678 47.84960938 358.86352539 C45.19433594 357.61108398 45.19433594 357.61108398 42.49023438 356.01196289 C41.4704248 355.41569092 40.45061523 354.81941895 39.39990234 354.20507812 C38.31080566 353.55611572 37.22170898 352.90715332 36.09960938 352.23852539 C34.94409658 351.55924322 33.787998 350.88095666 32.63134766 350.20361328 C30.22886046 348.79570945 27.82894696 347.38355848 25.43066406 345.96850586 C19.88688724 342.702955 14.30302849 339.50688736 8.72460938 336.30102539 C-0.57236742 330.94252529 -9.8472879 325.5471771 -19.11181641 320.1328125 C-26.44351542 315.85107622 -33.79322044 311.60132532 -41.15039062 307.36352539 C-50.47366893 301.99322851 -59.77677794 296.58978525 -69.06518555 291.15942383 C-74.4766341 287.99836513 -79.89585383 284.8513982 -85.32617188 281.72290039 C-85.92388397 281.37851929 -86.52159607 281.03413818 -87.13742065 280.67932129 C-90.04504712 279.00460907 -92.95365544 277.33163865 -95.86328125 275.66040039 C-96.90291016 275.06227539 -97.94253906 274.46415039 -99.01367188 273.84790039 C-99.93446533 273.3190625 -100.85525879 272.79022461 -101.80395508 272.24536133 C-103.62101829 271.17527728 -105.39581008 270.03324575 -107.15039062 268.86352539 C-107.51115417 267.02853394 -107.51115417 267.02853394 -107.4909668 264.78100586 C-107.4907402 263.94028534 -107.49051361 263.09956482 -107.49028015 262.23336792 C-107.4747963 261.32499176 -107.45931244 260.4166156 -107.44335938 259.48071289 C-107.43911453 258.5513089 -107.43486969 257.62190491 -107.43049622 256.66433716 C-107.41367074 253.68877483 -107.37601166 250.71388383 -107.33789062 247.73852539 C-107.32284878 245.72421224 -107.30915951 243.7098885 -107.296875 241.69555664 C-107.26375457 236.7512866 -107.21194591 231.8075199 -107.15039062 226.86352539 C-107.90151123 226.57251953 -108.65263184 226.28151367 -109.42651367 225.98168945 C-111.63066574 225.07687486 -113.65507123 224.12636978 -115.73242188 222.97290039 C-116.73982422 222.41469604 -116.73982422 222.41469604 -117.76757812 221.84521484 C-118.49203125 221.43875732 -119.21648437 221.0322998 -119.96289062 220.61352539 C-121.13271484 219.96033325 -121.13271484 219.96033325 -122.32617188 219.29394531 C-130.86972104 214.49904521 -139.31855855 209.5423273 -147.77148438 204.59008789 C-153.28075716 201.36502267 -158.80837653 198.17280688 -164.34228516 194.99023438 C-168.65699976 192.50785149 -172.96628447 190.01613949 -177.27490234 187.52319336 C-179.88667828 186.0157343 -182.5043552 184.51907683 -185.12304688 183.02368164 C-186.50761229 182.22107344 -187.89176863 181.41775887 -189.27539062 180.61352539 C-189.89099854 180.26700928 -190.50660645 179.92049316 -191.14086914 179.56347656 C-192.78320312 178.59790039 -192.78320312 178.59790039 -195.15039062 176.86352539 C-195.15039062 175.87352539 -195.15039062 174.88352539 -195.15039062 173.86352539 C-186.17443795 171.67027344 -177.16336477 169.90074659 -168.05851173 168.35454941 C-165.80057885 167.97105858 -163.5434915 167.58288441 -161.2865448 167.19363403 C-156.51269313 166.37115985 -151.73784386 165.55457598 -146.96289062 164.73852539 C-141.38618772 163.78491949 -135.8099187 162.82887481 -130.23450279 161.86777115 C-128.01133801 161.48568262 -125.78753531 161.10747736 -123.56367493 160.72946167 C-122.21079464 160.49682303 -120.85794366 160.26401393 -119.50512695 160.03100586 C-117.7319384 159.72814163 -117.7319384 159.72814163 -115.92292786 159.41915894 C-113.20650182 159.00105625 -113.20650182 159.00105625 -111.15039062 157.86352539 C-111.78203125 157.06172852 -112.41367188 156.25993164 -113.06445312 155.43383789 C-123.63550998 142.00405548 -134.17274161 128.54607474 -144.50805664 114.93359375 C-147.02786914 111.61743463 -149.56799315 108.32594774 -152.18554688 105.08618164 C-152.65573242 104.49748291 -153.12591797 103.90878418 -153.61035156 103.30224609 C-154.87175031 101.72731917 -156.14537655 100.16220721 -157.41992188 98.59790039 C-159.32937214 95.58071036 -159.31104004 94.32310873 -159.15039062 90.86352539 C-158.42787109 90.45215332 -157.70535156 90.04078125 -156.9609375 89.61694336 C-143.30144163 81.83586288 -129.66225142 74.02475823 -116.09375 66.08569336 C-108.79528656 61.81698584 -101.47732209 57.58316442 -94.15039062 53.36352539 C-85.80236614 48.55507816 -77.46790759 43.72455444 -69.15039062 38.86352539 C-60.83287285 34.00249587 -52.49834899 29.17208843 -44.15039062 24.36352539 C-35.36610468 19.30312066 -26.59436681 14.22191559 -17.83789062 9.11352539 C-16.83564453 8.52893555 -15.83339844 7.9443457 -14.80078125 7.34204102 C-9.62588137 4.35115105 -9.62588137 4.35115105 -4.59887695 1.12426758 C-2.15039062 -0.13647461 -2.15039062 -0.13647461 0 0 Z " fill="#ECC88F" transform="translate(220.150390625,76.136474609375)"/>
<path d="M0 0 C2.96470328 1.14861185 5.80233962 2.34717387 8.58203125 3.890625 C9.25363281 4.26276123 9.92523438 4.63489746 10.6171875 5.01831055 C11.34164063 5.42476807 12.06609375 5.83122559 12.8125 6.25 C13.59238281 6.68546143 14.37226563 7.12092285 15.17578125 7.56958008 C23.73100999 12.37103511 32.19121449 17.33490504 40.65625 22.29296875 C47.08759731 26.05753837 53.54180955 29.78172094 60 33.5 C69.3387491 38.87893637 78.65640447 44.29259523 87.9609375 49.73046875 C95.29283742 54.01222133 102.64268742 58.26208299 110 62.5 C121.41768644 69.07718967 132.81726294 75.68540191 144.17871094 82.359375 C146.23012432 83.5523049 148.29216935 84.72700955 150.36035156 85.890625 C152.01115723 86.82648438 152.01115723 86.82648438 153.6953125 87.78125 C154.70867676 88.34908203 155.72204102 88.91691406 156.76611328 89.50195312 C157.87188721 90.24348633 157.87188721 90.24348633 159 91 C159 91.66 159 92.32 159 93 C158.01902344 93.54527344 157.03804688 94.09054688 156.02734375 94.65234375 C148.76173866 98.70576744 141.54811775 102.82128274 134.42822266 107.1262207 C128.33926204 110.80597581 122.22254754 114.4384972 116.10171509 118.06491089 C114.36532321 119.09370286 112.62931088 120.12313535 110.89331055 121.15258789 C108.67178968 122.46869013 106.44905764 123.78275017 104.22509766 125.09472656 C102.14293583 126.32479401 100.06421435 127.56071244 97.98974609 128.80371094 C92.76287932 131.90951777 87.49652598 134.78999571 82.0390625 137.47265625 C75.27237659 140.80590309 68.82594097 144.5347101 62.375 148.4375 C60.0255871 149.84735743 57.6733429 151.25243989 55.3203125 152.65625 C54.72238892 153.01327499 54.12446533 153.37029999 53.50842285 153.73814392 C46.80735868 157.72851977 40.03120908 161.58546379 33.25 165.4375 C23.75562988 170.83396701 14.31410423 176.29748721 5 182 C10.31292009 181.50273162 15.6128546 180.92900879 20.91455078 180.32421875 C24.15749811 179.98345011 27.40186715 179.72710322 30.65234375 179.46875 C47.43457819 177.89460608 58.99555246 173.20319782 72.96972656 163.95849609 C78.18599225 160.5871713 83.60082503 157.56620307 89 154.5 C91.18852443 153.24136294 93.37603011 151.98095278 95.5625 150.71875 C96.635 150.1 97.7075 149.48125 98.8125 148.84375 C103.88356458 145.91048715 108.94214996 142.95597305 114 140 C123.4099033 134.50054464 132.84470563 129.04550804 142.2890625 123.60546875 C150.5160493 118.86366132 158.72124091 114.08549362 166.91918945 109.29370117 C175.77216963 104.12316138 184.65131345 98.99863185 193.53710938 93.88476562 C194.57029297 93.28986328 195.60347656 92.69496094 196.66796875 92.08203125 C197.57828857 91.55843018 198.4886084 91.0348291 199.42651367 90.49536133 C201.20456523 89.46219884 202.9643965 88.39726305 204.70825195 87.30737305 C207 86 207 86 209 86 C209.33 85.34 209.66 84.68 210 84 C210 85.32 210 86.64 210 88 C209.2565332 88.4218457 208.51306641 88.84369141 207.74707031 89.27832031 C204.24662906 91.26639835 200.74785701 93.25737972 197.25 95.25 C196.61862122 95.6094873 195.98724243 95.96897461 195.33673096 96.33935547 C186.09645764 101.60491028 176.9247172 106.96606821 167.86816406 112.54394531 C167.1150293 113.00381836 166.36189453 113.46369141 165.5859375 113.9375 C164.9367334 114.33839844 164.2875293 114.73929687 163.61865234 115.15234375 C162 116 162 116 160 116 C160 144.38 160 172.76 160 202 C152.41 206.29 144.82 210.58 137 215 C133.05476433 217.28051011 129.11499424 219.56488416 125.1875 221.875 C116.80979992 226.78185941 108.41371458 231.65515223 100 236.5 C91.65194352 241.30839128 83.3175166 246.13897117 75 251 C66.68248186 255.86102973 58.34792636 260.69138101 50 265.5 C41.32129364 270.50028407 32.65290068 275.51767526 24 280.5625 C23.03964844 281.12195313 22.07929688 281.68140625 21.08984375 282.2578125 C20.17332031 282.79277344 19.25679688 283.32773437 18.3125 283.87890625 C17.42820312 284.3908252 16.54390625 284.90274414 15.6328125 285.43017578 C13.83258411 286.50356863 12.05692693 287.61897713 10.3046875 288.76904297 C9.44101562 289.32865723 8.57734375 289.88827148 7.6875 290.46484375 C6.54861328 291.23042603 6.54861328 291.23042603 5.38671875 292.01147461 C2.15640152 293.34939957 0.3449715 292.92000139 -3 292 C-5.65527344 290.74755859 -5.65527344 290.74755859 -8.359375 289.1484375 C-9.37918457 288.55216553 -10.39899414 287.95589355 -11.44970703 287.34155273 C-12.53880371 286.69259033 -13.62790039 286.04362793 -14.75 285.375 C-15.90551279 284.69571783 -17.06161137 284.01743127 -18.21826172 283.34008789 C-20.62074891 281.93218406 -23.02066241 280.52003309 -25.41894531 279.10498047 C-30.96272213 275.83942961 -36.54658088 272.64336197 -42.125 269.4375 C-51.4219768 264.0789999 -60.69689727 258.68365171 -69.96142578 253.26928711 C-77.29312479 248.98755083 -84.64282981 244.73779993 -92 240.5 C-101.3232783 235.12970311 -110.62638732 229.72625986 -119.91479492 224.29589844 C-125.32624348 221.13483974 -130.7454632 217.98787281 -136.17578125 214.859375 C-136.77349335 214.5149939 -137.37120544 214.17061279 -137.98703003 213.8157959 C-140.89465649 212.14108368 -143.80326482 210.46811326 -146.71289062 208.796875 C-147.75251953 208.19875 -148.79214844 207.600625 -149.86328125 206.984375 C-150.78407471 206.45553711 -151.70486816 205.92669922 -152.65356445 205.38183594 C-154.47062767 204.31175189 -156.24541946 203.16972036 -158 202 C-158.36076355 200.16500854 -158.36076355 200.16500854 -158.34057617 197.91748047 C-158.34034958 197.07675995 -158.34012299 196.23603943 -158.33988953 195.36984253 C-158.32440567 194.46146637 -158.30892181 193.55309021 -158.29296875 192.6171875 C-158.28872391 191.68778351 -158.28447906 190.75837952 -158.28010559 189.80081177 C-158.26328012 186.82524944 -158.22562103 183.85035844 -158.1875 180.875 C-158.17245816 178.86068685 -158.15876888 176.84636311 -158.14648438 174.83203125 C-158.11336394 169.88776121 -158.06155529 164.94399451 -158 160 C-158.75112061 159.70899414 -159.50224121 159.41798828 -160.27612305 159.11816406 C-162.48027511 158.21334946 -164.5046806 157.26284439 -166.58203125 156.109375 C-167.58943359 155.55117065 -167.58943359 155.55117065 -168.6171875 154.98168945 C-169.34164062 154.57523193 -170.06609375 154.16877441 -170.8125 153.75 C-171.98232422 153.09680786 -171.98232422 153.09680786 -173.17578125 152.43041992 C-181.71933041 147.63551982 -190.16816792 142.6788019 -198.62109375 137.7265625 C-205.24899923 133.8466625 -211.90499542 130.01631257 -218.5625 126.1875 C-227.76861022 120.88911729 -236.92760268 115.52428153 -246 110 C-245.67 109.01 -245.34 108.02 -245 107 C-230.60898435 115.19363581 -216.2367221 123.41464361 -201.94335938 131.77783203 C-194.64489594 136.04653955 -187.32693146 140.28036097 -180 144.5 C-170.66132259 149.87906155 -161.34359631 155.29259477 -152.0390625 160.73046875 C-144.70716249 165.01222138 -137.35730505 169.26206977 -130 173.5 C-121.21571405 178.56040473 -112.44397619 183.6416098 -103.6875 188.75 C-102.68525391 189.33458984 -101.68300781 189.91917969 -100.65039062 190.52148438 C-93.06916247 194.94867013 -93.06916247 194.94867013 -90.68676758 196.71679688 C-87.03373102 198.46149112 -84.0543812 197.96086293 -80.1875 197.359375 C-79.43976318 197.25663269 -78.69202637 197.15389038 -77.92163086 197.04803467 C-75.61022677 196.72192554 -73.30527991 196.36674908 -71 196 C-69.9785791 195.83890747 -69.9785791 195.83890747 -68.93652344 195.67456055 C-64.27958164 194.92698672 -59.6397041 194.096079 -55 193.25 C-53.54889625 192.98896022 -52.09772273 192.72830801 -50.64648438 192.46801758 C-47.63617404 191.92712172 -44.62647277 191.38299486 -41.6171875 190.83642578 C-37.70769027 190.12688363 -33.79664715 189.42630526 -29.88500977 188.72866821 C-26.82414072 188.18239627 -23.76380718 187.63317019 -20.70361328 187.08312988 C-19.23989462 186.82033838 -17.77602805 186.55836932 -16.31201172 186.29724121 C-14.28036136 185.93428005 -12.2494755 185.56731422 -10.21875 185.19921875 C-8.4852832 184.88730591 -8.4852832 184.88730591 -6.71679688 184.5690918 C-4.04902472 184.13048589 -4.04902472 184.13048589 -2 183 C-2.99290039 182.42838135 -2.99290039 182.42838135 -4.00585938 181.84521484 C-17.00555215 174.35898434 -29.99247604 166.85253289 -42.94189453 159.27954102 C-49.28672058 155.57239894 -55.64950206 151.89792286 -62.02197266 148.23852539 C-73.46062282 141.66800616 -84.79572358 134.96286429 -96 128 C-93.20609818 125.80213057 -90.40415875 124.06077598 -87.24609375 122.43359375 C-86.31941895 121.95349854 -85.39274414 121.47340332 -84.43798828 120.97875977 C-83.44782715 120.47014404 -82.45766602 119.96152832 -81.4375 119.4375 C-79.33967795 118.35188283 -77.24202388 117.265941 -75.14453125 116.1796875 C-73.57952881 115.37096191 -73.57952881 115.37096191 -71.98291016 114.54589844 C-67.85265369 112.40538576 -63.73801082 110.23591096 -59.625 108.0625 C-54.26248345 105.23207293 -48.89058834 102.42064304 -43.5078125 99.62890625 C-41.82824463 98.75770142 -41.82824463 98.75770142 -40.11474609 97.86889648 C-37.92304746 96.73297257 -35.73069669 95.59830573 -33.53759766 94.46508789 C-29.27447534 92.25580469 -25.030836 90.05046941 -20.890625 87.6171875 C-18 86 -18 86 -16 86 C-15.80470703 84.33710938 -15.80470703 84.33710938 -15.60546875 82.640625 C-13.70854187 67.53142033 -10.55214312 52.61310848 -7.2956543 37.75 C-4.56964945 25.22094563 -2.25696044 12.62080158 0 0 Z " fill="#DBA75F" transform="translate(271,143)"/>
<path d="M0 0 C2.96470328 1.14861185 5.80233962 2.34717387 8.58203125 3.890625 C9.25363281 4.26276123 9.92523438 4.63489746 10.6171875 5.01831055 C11.70386719 5.62799683 11.70386719 5.62799683 12.8125 6.25 C13.59238281 6.68546143 14.37226563 7.12092285 15.17578125 7.56958008 C23.73100999 12.37103511 32.19121449 17.33490504 40.65625 22.29296875 C47.08759731 26.05753837 53.54180955 29.78172094 60 33.5 C69.3387491 38.87893637 78.65640447 44.29259523 87.9609375 49.73046875 C95.29283742 54.01222133 102.64268742 58.26208299 110 62.5 C121.41768644 69.07718967 132.81726294 75.68540191 144.17871094 82.359375 C146.23012432 83.5523049 148.29216935 84.72700955 150.36035156 85.890625 C151.46088867 86.51453125 152.56142578 87.1384375 153.6953125 87.78125 C154.70867676 88.34908203 155.72204102 88.91691406 156.76611328 89.50195312 C157.87188721 90.24348633 157.87188721 90.24348633 159 91 C159 91.66 159 92.32 159 93 C158.01902344 93.54527344 157.03804687 94.09054688 156.02734375 94.65234375 C148.76173866 98.70576744 141.54811775 102.82128274 134.42822266 107.1262207 C128.33926204 110.80597581 122.22254754 114.4384972 116.10171509 118.06491089 C114.36532321 119.09370286 112.62931088 120.12313535 110.89331055 121.15258789 C108.68463144 122.46108225 106.47235822 123.76353093 104.25634766 125.05957031 C102.05011683 126.37424437 99.86759942 127.72939969 97.70849609 129.12011719 C96.66387207 129.77915039 95.61924805 130.43818359 94.54296875 131.1171875 C93.15694458 132.01993408 93.15694458 132.01993408 91.74291992 132.94091797 C89 134 89 134 85.92016602 133.33496094 C83.39547837 132.18079389 81.07648154 131.00618216 78.734375 129.5234375 C77.94047363 129.02593994 77.14657227 128.52844238 76.32861328 128.01586914 C75.4776709 127.47438232 74.62672852 126.93289551 73.75 126.375 C71.86751752 125.19348445 69.98468906 124.01251999 68.1015625 122.83203125 C67.10930664 122.2076416 66.11705078 121.58325195 65.09472656 120.93994141 C59.79123115 117.61542464 54.457581 114.34008443 49.125 111.0625 C48.03791748 110.393396 46.95083496 109.72429199 45.83081055 109.03491211 C37.51344396 103.91904466 29.17693274 98.83507733 20.82275391 93.77954102 C19.95440918 93.25287842 19.08606445 92.72621582 18.19140625 92.18359375 C17.34594238 91.67296387 16.50047852 91.16233398 15.62939453 90.63623047 C13.74319153 89.46247629 11.88202983 88.24811207 10.03857422 87.00830078 C8.57895264 86.03159424 8.57895264 86.03159424 7.08984375 85.03515625 C6.21062256 84.43195557 5.33140137 83.82875488 4.42553711 83.20727539 C2.16347567 81.83177383 2.16347567 81.83177383 0.0769043 82.10742188 C-2.8081544 83.34731544 -5.55225997 84.76143273 -8.3203125 86.24609375 C-8.93136337 86.5724733 -9.54241425 86.89885284 -10.17198181 87.23512268 C-12.15878326 88.29806059 -14.14197287 89.36753953 -16.125 90.4375 C-17.50436185 91.17794691 -18.8838384 91.91818015 -20.26342773 92.65820312 C-28.59867496 97.13591146 -36.90231409 101.66691441 -45.15625 106.29296875 C-51.77273992 110.00023448 -58.42022469 113.65171527 -65.0625 117.3125 C-66.91922641 118.33595319 -68.77591842 119.35946735 -70.63230896 120.38352966 C-72.36856665 121.34036169 -74.10638417 122.29436157 -75.84423828 123.24829102 C-77.81730549 124.34350665 -79.7810457 125.45590103 -81.72998047 126.59350586 C-82.51904785 127.05249268 -83.30811523 127.51147949 -84.12109375 127.984375 C-85.11580688 128.57750488 -85.11580688 128.57750488 -86.13061523 129.18261719 C-89.41122168 130.6170524 -91.64048834 130.04984739 -95 129 C-95.33 128.34 -95.66 127.68 -96 127 C-94.92238403 126.4423999 -94.92238403 126.4423999 -93.82299805 125.87353516 C-75.47047491 116.37491796 -75.47047491 116.37491796 -57.17163086 106.7734375 C-52.63110545 104.3772264 -48.08098907 102.00040961 -43.5234375 99.63671875 C-42.40146973 99.0547876 -41.27950195 98.47285645 -40.12353516 97.87329102 C-37.92856288 96.73577499 -35.73295767 95.59947919 -33.53662109 94.46459961 C-29.27383287 92.25546468 -25.03052162 90.05028464 -20.890625 87.6171875 C-18 86 -18 86 -16 86 C-15.86980469 84.89140625 -15.73960937 83.7828125 -15.60546875 82.640625 C-13.70854187 67.53142033 -10.55214312 52.61310848 -7.2956543 37.75 C-4.56964945 25.22094563 -2.25696044 12.62080158 0 0 Z " fill="#BB7B3F" transform="translate(271,143)"/>
<path d="M0 0 C1.47924712 0.91214038 2.95980698 1.82215398 4.44140625 2.73046875 C5.24980957 3.2311084 6.05821289 3.73174805 6.89111328 4.24755859 C12.01477578 7.36895635 17.23364004 10.32748345 22.4375 13.3125 C24.69294417 14.6115698 26.94815516 15.91104452 29.203125 17.2109375 C30.28787109 17.83581055 31.37261719 18.46068359 32.49023438 19.10449219 C43.72184014 25.5771245 54.93130305 32.08704847 66.125 38.625 C74.58884425 43.56846623 83.06909067 48.48251231 91.5625 53.375 C101.04709679 58.8384448 110.5119125 64.33457973 119.96289062 69.85595703 C129.14803269 75.22115334 138.35225324 80.55304138 147.5625 85.875 C143.87975982 88.07859711 139.99645862 88.66440155 135.828125 89.35546875 C134.66659409 89.55611687 134.66659409 89.55611687 133.4815979 89.76081848 C130.92624151 90.20085477 128.36946307 90.63190597 125.8125 91.0625 C123.12068143 91.52147853 120.42915427 91.98214009 117.73764038 92.44290161 C115.87190998 92.76211013 114.00604249 93.08051836 112.14004517 93.39816284 C105.49439348 94.53246325 98.85915391 95.71767113 92.2265625 96.92578125 C89.50805025 97.41695428 86.78939058 97.90730261 84.07067871 98.39736938 C82.32308837 98.71436369 80.57608769 99.0346272 78.82971191 99.35824585 C76.38542827 99.81048583 73.93919253 100.25026221 71.4921875 100.6875 C70.77511627 100.82356155 70.05804504 100.95962311 69.31924438 101.09980774 C62.7806738 102.24562623 58.24408547 101.60717634 52.5703125 98.20703125 C51.63074707 97.65088135 50.69118164 97.09473145 49.72314453 96.52172852 C48.72138184 95.91643311 47.71961914 95.3111377 46.6875 94.6875 C44.52096472 93.40082042 42.35429434 92.11436827 40.1875 90.828125 C39.0840625 90.16876953 37.980625 89.50941406 36.84375 88.83007812 C31.8115351 85.83171675 26.74991977 82.88447637 21.6875 79.9375 C20.70410645 79.36362549 19.72071289 78.78975098 18.70751953 78.19848633 C10.24661235 73.26307143 1.76165021 68.36981859 -6.72607422 63.48071289 C-14.96719191 58.73085468 -23.1861691 53.94404959 -31.3984375 49.14453125 C-39.80902628 44.2328357 -48.2449293 39.36577394 -56.68481445 34.50463867 C-65.34459922 29.51360189 -73.98288898 24.48641906 -82.61132812 19.44140625 C-87.53940213 16.56069493 -92.47498951 13.69601219 -97.4375 10.875 C-97.1075 10.215 -96.7775 9.555 -96.4375 8.875 C-93.98873165 8.25922438 -91.60680089 7.77302435 -89.12304688 7.34692383 C-87.97408432 7.13925133 -87.97408432 7.13925133 -86.8019104 6.92738342 C-84.25489901 6.46974887 -81.70578396 6.0253812 -79.15625 5.58203125 C-77.38554685 5.26902482 -75.61491788 4.95559852 -73.84436035 4.64176941 C-70.1228526 3.98441672 -66.40022615 3.33389519 -62.67675781 2.68774414 C-57.92082102 1.86162353 -53.16853588 1.01629875 -48.41698456 0.16536427 C-44.75520108 -0.48772114 -41.09143872 -1.1291052 -37.42701721 -1.76720619 C-35.67537803 -2.07391074 -33.92441325 -2.38449433 -32.17417908 -2.69911766 C-29.71375221 -3.13985472 -27.25102441 -3.56437033 -24.78710938 -3.98510742 C-24.07297882 -4.11647095 -23.35884827 -4.24783447 -22.62307739 -4.38317871 C-14.02867781 -5.80958966 -7.29523748 -4.71756223 0 0 Z " fill="#ECC88F" transform="translate(123.4375,240.125)"/>
<path d="M0 0 C7.20030487 3.47715373 14.11910731 7.30649902 21 11.375 C23.12464655 12.62299776 25.24965936 13.87037214 27.375 15.1171875 C28.46554688 15.7575293 29.55609375 16.39787109 30.6796875 17.05761719 C36.1047113 20.23125611 41.55253414 23.3650913 47 26.5 C56.33886625 31.87873168 65.65640579 37.29259599 74.9609375 42.73046875 C82.29283764 47.01222146 89.64270807 51.26204691 97 55.5 C104.39067665 59.75785154 111.77716904 64.02234582 119.14233398 68.32421875 C121.12034218 69.47699098 123.10160634 70.62419559 125.08618164 71.765625 C130.2307201 74.73570285 135.2701037 77.80091198 140.23828125 81.05859375 C141.79554932 82.0475061 141.79554932 82.0475061 143.38427734 83.05639648 C145.34467209 84.30433368 147.28385878 85.58660385 149.19384766 86.91040039 C157.90338495 92.36104024 165.45935501 90.80553678 175 89 C176.33707949 88.77747095 177.67488264 88.55923947 179.01342773 88.34570312 C183.01778315 87.6899784 187.00821336 86.97710718 191 86.25 C192.4532871 85.98961331 193.90665826 85.72969541 195.36010742 85.47021484 C202.25651114 84.23562377 209.1481065 82.97527283 216.03762817 81.70288086 C218.32894191 81.27977843 220.62050738 80.85806148 222.91210938 80.43652344 C225.79341905 79.90643979 228.67340661 79.36983696 231.55273438 78.82910156 C232.86454975 78.58640694 234.17639701 78.3438846 235.48828125 78.1015625 C236.62821533 77.88838379 237.76814941 77.67520508 238.94262695 77.45556641 C242 77 242 77 247 77 C247 112.97 247 148.94 247 186 C242.71543596 184.57181199 239.8089992 183.48701477 236.078125 181.26953125 C235.14871094 180.72167969 234.21929687 180.17382812 233.26171875 179.609375 C232.26785156 179.01640625 231.27398437 178.4234375 230.25 177.8125 C228.08894367 176.53707902 225.927471 175.26236327 223.765625 173.98828125 C222.64994141 173.32908691 221.53425781 172.66989258 220.38476562 171.99072266 C214.94407975 168.79082706 209.47178526 165.64631769 204 162.5 C194.66092579 157.12163189 185.34359183 151.70740261 176.0390625 146.26953125 C168.70716277 141.98777878 161.35732762 137.73789061 154 133.5 C144.6767217 128.12970311 135.37361268 122.72625986 126.08520508 117.29589844 C120.67375652 114.13483974 115.2545368 110.98787281 109.82421875 107.859375 C109.22650665 107.5149939 108.62879456 107.17061279 108.01296997 106.8157959 C105.10534351 105.14108368 102.19673518 103.46811326 99.28710938 101.796875 C98.24748047 101.19875 97.20785156 100.600625 96.13671875 99.984375 C95.21592529 99.45553711 94.29513184 98.92669922 93.34643555 98.38183594 C91.52937233 97.31175189 89.75458054 96.16972036 88 95 C87.63923645 93.16500854 87.63923645 93.16500854 87.65942383 90.91748047 C87.65965042 90.07675995 87.65987701 89.23603943 87.66011047 88.36984253 C87.67559433 87.46146637 87.69107819 86.55309021 87.70703125 85.6171875 C87.71127609 84.68778351 87.71552094 83.75837952 87.71989441 82.80081177 C87.73671988 79.82524944 87.77437897 76.85035844 87.8125 73.875 C87.82754184 71.86068685 87.84123112 69.84636311 87.85351562 67.83203125 C87.88663606 62.88776121 87.93844471 57.94399451 88 53 C87.24887939 52.70899414 86.49775879 52.41798828 85.72387695 52.11816406 C83.51972489 51.21334946 81.4953194 50.26284439 79.41796875 49.109375 C78.74636719 48.73723877 78.07476562 48.36510254 77.3828125 47.98168945 C76.29613281 47.37200317 76.29613281 47.37200317 75.1875 46.75 C74.40761719 46.31453857 73.62773438 45.87907715 72.82421875 45.43041992 C64.28066959 40.63551982 55.83183208 35.6788019 47.37890625 30.7265625 C41.86963346 27.50149728 36.34201409 24.30928149 30.80810547 21.12670898 C26.49339086 18.6443261 22.18410616 16.1526141 17.87548828 13.65966797 C15.26371234 12.15220891 12.64603543 10.65555143 10.02734375 9.16015625 C8.64277834 8.35754805 7.25862199 7.55423348 5.875 6.75 C5.25939209 6.40348389 4.64378418 6.05696777 4.00952148 5.69995117 C2.3671875 4.734375 2.3671875 4.734375 0 3 C0 2.01 0 1.02 0 0 Z " fill="#BB7A3F" transform="translate(25,250)"/>
<path d="M0 0 C2.3621302 0.95537204 4.46752178 2.1013515 6.65795898 3.40576172 C7.55482422 3.9372583 8.45168945 4.46875488 9.37573242 5.01635742 C10.32996094 5.5895874 11.28418945 6.16281738 12.26733398 6.75341797 C13.26023437 7.34533936 14.25313477 7.93726074 15.27612305 8.54711914 C22.09651548 12.62668343 28.85668856 16.79353458 35.57983398 21.03076172 C52.24910142 31.52347024 69.09477769 41.73785357 86.01733398 51.81591797 C83.61763717 54.47157584 81.0528921 56.0959035 77.95092773 57.86279297 C76.40671143 58.74753296 76.40671143 58.74753296 74.83129883 59.65014648 C73.15994873 60.59845337 73.15994873 60.59845337 71.45483398 61.56591797 C70.28478078 62.23459309 69.11502648 62.90379147 67.94555664 63.57348633 C65.51379032 64.96545051 63.08075155 66.35514999 60.64672852 67.74316406 C55.05110789 70.93611165 49.47193888 74.15759126 43.89233398 77.37841797 C42.83320801 77.98935303 41.77408203 78.60028809 40.68286133 79.22973633 C32.97245901 83.67985058 25.27216376 88.1471386 17.57983398 92.62841797 C16.56066895 93.22146729 15.54150391 93.8145166 14.49145508 94.42553711 C13.55253418 94.97330811 12.61361328 95.5210791 11.64624023 96.08544922 C10.82196533 96.56602783 9.99769043 97.04660645 9.1484375 97.54174805 C7.40704114 98.58291515 5.70549211 99.69047922 4.01733398 100.81591797 C9.33025407 100.31864959 14.63018859 99.74492675 19.93188477 99.14013672 C23.1748321 98.79936808 26.41920113 98.54302118 29.66967773 98.28466797 C46.45191217 96.71052405 58.01288644 92.01911579 71.98706055 82.77441406 C77.20332624 79.40308927 82.61815901 76.38212104 88.01733398 73.31591797 C90.20585841 72.05728091 92.3933641 70.79687075 94.57983398 69.53466797 C95.65233398 68.91591797 96.72483398 68.29716797 97.82983398 67.65966797 C103.87652911 64.16206981 109.90579436 60.63464762 115.93652344 57.10961914 C124.78950361 51.93907935 133.66864744 46.81454982 142.55444336 41.70068359 C143.58762695 41.10578125 144.62081055 40.51087891 145.68530273 39.89794922 C146.59562256 39.37434814 147.50594238 38.85074707 148.44384766 38.3112793 C150.22189921 37.27811681 151.98173049 36.21318102 153.72558594 35.12329102 C156.01733398 33.81591797 156.01733398 33.81591797 158.01733398 33.81591797 C158.01733398 34.47591797 158.01733398 35.13591797 158.01733398 35.81591797 C156.99639648 36.37537109 155.97545898 36.93482422 154.92358398 37.51123047 C145.02075505 42.96265891 135.22267303 48.57621987 125.46850586 54.2890625 C118.00206079 58.66169618 110.51597206 62.9987409 103.01733398 67.31591797 C95.48700046 71.65202523 87.96715267 76.00486469 80.46704102 80.39306641 C77.47067591 82.14510965 74.47098687 83.89132821 71.47045898 85.63623047 C68.0731997 87.61184919 64.68830237 89.60572339 61.31420898 91.62060547 C59.92387837 92.43621166 58.53327547 93.25135399 57.14233398 94.06591797 C56.55500488 94.42476074 55.96767578 94.78360352 55.36254883 95.15332031 C46.54307535 100.25588994 35.47773038 100.53589773 25.57983398 101.87841797 C24.33395508 102.05179687 23.08807617 102.22517578 21.80444336 102.40380859 C18.21117838 102.89611419 14.61545447 103.36062066 11.01733398 103.81591797 C9.94338379 103.96399902 8.86943359 104.11208008 7.76293945 104.26464844 C6.78341309 104.38340332 5.80388672 104.5021582 4.79467773 104.62451172 C3.51258423 104.78971313 3.51258423 104.78971313 2.20458984 104.95825195 C-0.63908759 104.77320184 -1.11716198 103.90458846 -2.98266602 101.81591797 C-4.66657964 100.74277564 -6.38359882 99.72092608 -8.11938477 98.73388672 C-9.15901367 98.13898438 -10.19864258 97.54408203 -11.26977539 96.93115234 C-12.3919043 96.295 -13.5140332 95.65884766 -14.67016602 95.00341797 C-16.44600345 93.98939623 -18.22082585 92.97361268 -19.99563599 91.95779419 C-21.20908375 91.26345206 -22.42285257 90.56967072 -23.63693237 89.87643433 C-29.44115701 86.56099985 -35.2141142 83.19299688 -40.98266602 79.81591797 C-48.39170143 75.48266883 -55.8172003 71.17963588 -63.25854492 66.90209961 C-72.92316925 61.34635843 -82.56475518 55.78313678 -91.98266602 49.81591797 C-89.44124678 48.12163848 -86.93630733 46.67264822 -84.24829102 45.23388672 C-83.29422363 44.72108154 -82.34015625 44.20827637 -81.35717773 43.67993164 C-80.32608887 43.12668213 -79.295 42.57343262 -78.23266602 42.00341797 C-70.05196087 37.59705672 -61.92601866 33.11205524 -53.85766602 28.50341797 C-43.47105351 22.57682619 -32.93980919 16.94153293 -22.35913086 11.37133789 C-16.09425968 8.06267169 -9.97016424 4.68618804 -4.06201172 0.76489258 C-1.98266602 -0.18408203 -1.98266602 -0.18408203 0 0 Z " fill="#CE9C6A" transform="translate(271.982666015625,224.18408203125)"/>
<path d="M0 0 C0.33 0 0.66 0 1 0 C0.28621004 9.53970639 -1.56137171 18.80991993 -3.375 28.1875 C-3.68267762 29.79745233 -3.9899716 31.40747803 -4.296875 33.01757812 C-4.60131479 34.6094224 -4.90600073 36.20121961 -5.2109375 37.79296875 C-5.4357933 38.96688675 -5.4357933 38.96688675 -5.66519165 40.16452026 C-6.3689825 43.81514627 -7.0898415 47.45994744 -7.86474609 51.09619141 C-9.07301463 56.8290711 -10.11000943 62.32792073 -10.3671875 68.1875 C-10.80468103 74.61163335 -11.54050692 80.44804014 -15 86 C-22.3249101 92.31288188 -31.58771429 95.85015904 -40.44433594 99.49804688 C-45.04117401 101.4398038 -49.38109237 103.72436234 -53.75 106.125 C-55.21849104 106.90399156 -56.68857614 107.67998479 -58.16015625 108.453125 C-58.91699707 108.85208984 -59.67383789 109.25105469 -60.45361328 109.66210938 C-65.69089604 112.4138169 -70.93927084 115.14424506 -76.1875 117.875 C-77.23969727 118.4230127 -78.29189453 118.97102539 -79.37597656 119.53564453 C-81.35888709 120.56656703 -83.34825063 121.58519968 -85.34472656 122.58959961 C-87.96946461 123.91757592 -87.96946461 123.91757592 -90.13183594 125.47485352 C-92.17532343 126.8231099 -93.57725763 127.61784383 -96 128 C-100.04423219 126.73524361 -103.35393548 124.50581027 -106.875 122.1875 C-108.99898384 120.8668539 -111.1240229 119.5479037 -113.25 118.23046875 C-114.35085937 117.5348584 -115.45171875 116.83924805 -116.5859375 116.12255859 C-122.24537894 112.57299307 -128.07240914 109.30783575 -133.875 106 C-141.29612338 101.74110162 -148.68062925 97.43180086 -156 93 C-154.69204145 89.07612434 -153.2626032 88.7265064 -149.69140625 86.734375 C-148.56508789 86.09935059 -147.43876953 85.46432617 -146.27832031 84.81005859 C-145.03972649 84.12334904 -143.80111937 83.43666348 -142.5625 82.75 C-141.28814911 82.03441178 -140.01439317 81.3177631 -138.74121094 80.60009766 C-136.11525639 79.12044118 -133.48726065 77.64451092 -130.85791016 76.17089844 C-125.12774047 72.95337862 -119.43864549 69.66529972 -113.75 66.375 C-112.68209229 65.75850586 -111.61418457 65.14201172 -110.51391602 64.50683594 C-102.34090374 59.78550563 -94.18721957 55.03143643 -86.03808594 50.26904297 C-77.61402569 45.34924802 -69.1643035 40.47468788 -60.7109375 35.60546875 C-52.48678592 30.86529546 -44.28381526 26.08979752 -36.08959961 21.2980957 C-30.6543521 18.12260283 -25.21015361 14.9634456 -19.75390625 11.82421875 C-19.15146088 11.47747101 -18.5490155 11.13072327 -17.92831421 10.77346802 C-14.99061073 9.08303604 -12.05174774 7.39469183 -9.11132812 5.70898438 C-8.06525391 5.10763672 -7.01917969 4.50628906 -5.94140625 3.88671875 C-5.01013916 3.35264404 -4.07887207 2.81856934 -3.11938477 2.26831055 C-1.08882777 1.1700457 -1.08882777 1.1700457 0 0 Z " fill="#DCA862" transform="translate(270,143)"/>
<path d="M0 0 C0.99 0.495 0.99 0.495 2 1 C1.67 27.4 1.34 53.8 1 81 C-14.71153706 89.66843424 -30.41303501 98.3089743 -46.19921875 106.83203125 C-52.23447047 110.1110585 -58.21367932 113.48567767 -64.1875 116.875 C-65.62681885 117.68771362 -65.62681885 117.68771362 -67.09521484 118.5168457 C-71.10887103 120.7841367 -75.11428007 123.05943982 -79.08203125 125.40625 C-80.77392578 126.38078125 -80.77392578 126.38078125 -82.5 127.375 C-83.87671875 128.19097656 -83.87671875 128.19097656 -85.28125 129.0234375 C-88.87031724 130.31261395 -91.3349487 129.89847131 -95 129 C-95.33 128.34 -95.66 127.68 -96 127 C-94.92238403 126.4423999 -94.92238403 126.4423999 -93.82299805 125.87353516 C-75.47047491 116.37491796 -75.47047491 116.37491796 -57.17163086 106.7734375 C-52.63110545 104.3772264 -48.08098907 102.00040961 -43.5234375 99.63671875 C-42.40146973 99.0547876 -41.27950195 98.47285645 -40.12353516 97.87329102 C-37.92856288 96.73577499 -35.73295767 95.59947919 -33.53662109 94.46459961 C-29.27383287 92.25546468 -25.03052162 90.05028464 -20.890625 87.6171875 C-18 86 -18 86 -16 86 C-15.86980469 84.89140625 -15.73960937 83.7828125 -15.60546875 82.640625 C-13.70854187 67.53142033 -10.55214312 52.61310848 -7.2956543 37.75 C-4.56964945 25.22094563 -2.25696044 12.62080158 0 0 Z " fill="#C58B4B" transform="translate(271,143)"/>
<path d="M0 0 C2.37768133 21.49667787 2.37768133 21.49667787 -1.359375 27.00292969 C-4.79556375 30.01539922 -8.75399562 31.70575114 -13.02392578 33.22900391 C-15.11401826 34.044486 -16.94419336 35.05366972 -18.87109375 36.19921875 C-22 38 -22 38 -24 38 C-24.26246434 34.12629549 -24.42153564 30.25487619 -24.5625 26.375 C-24.63791016 25.28058594 -24.71332031 24.18617188 -24.79101562 23.05859375 C-25.0078222 15.10901917 -25.0078222 15.10901917 -22.22021484 12.04150391 C-19.8830861 10.46595075 -17.54031432 9.21727076 -15 8 C-13.69193934 7.23143793 -12.3892956 6.45353824 -11.09375 5.6640625 C-9.89775252 4.98100359 -8.69986604 4.30124029 -7.5 3.625 C-6.88125 3.27050781 -6.2625 2.91601562 -5.625 2.55078125 C-1.13404923 0 -1.13404923 0 0 0 Z " fill="#EBCBAD" transform="translate(302,387)"/>
<path d="M0 0 C7.20030487 3.47715373 14.11910731 7.30649902 21 11.375 C23.12464655 12.62299776 25.24965936 13.87037214 27.375 15.1171875 C28.46554688 15.7575293 29.55609375 16.39787109 30.6796875 17.05761719 C36.1047113 20.23125611 41.55253414 23.3650913 47 26.5 C56.33886625 31.87873168 65.65640579 37.29259599 74.9609375 42.73046875 C82.29283764 47.01222146 89.64270807 51.26204691 97 55.5 C104.39067665 59.75785154 111.77716904 64.02234582 119.14233398 68.32421875 C121.12034218 69.47699098 123.10160634 70.62419559 125.08618164 71.765625 C130.2307201 74.73570285 135.2701037 77.80091198 140.23828125 81.05859375 C141.79554932 82.0475061 141.79554932 82.0475061 143.38427734 83.05639648 C145.34467209 84.30433368 147.28385878 85.58660385 149.19384766 86.91040039 C157.90338495 92.36104024 165.45935501 90.80553678 175 89 C176.33707949 88.77747095 177.67488264 88.55923947 179.01342773 88.34570312 C183.01778315 87.6899784 187.00821336 86.97710718 191 86.25 C192.4532871 85.98961331 193.90665826 85.72969541 195.36010742 85.47021484 C202.25651114 84.23562377 209.1481065 82.97527283 216.03762817 81.70288086 C218.32894191 81.27977843 220.62050738 80.85806148 222.91210938 80.43652344 C225.79341905 79.90643979 228.67340661 79.36983696 231.55273438 78.82910156 C232.86454975 78.58640694 234.17639701 78.3438846 235.48828125 78.1015625 C236.62821533 77.88838379 237.76814941 77.67520508 238.94262695 77.45556641 C241.68975908 77.0462277 244.22951964 76.9088679 247 77 C247 77.66 247 78.32 247 79 C232.169479 82.39277083 217.17068281 84.86164378 202.15234375 87.26171875 C201.47764542 87.36969788 200.80294708 87.477677 200.10780334 87.58892822 C196.79729519 88.11806531 193.48624469 88.64295151 190.17407227 89.16162109 C182.50734282 90.37687661 174.92507213 91.79102168 167.33984375 93.42944336 C161.40266133 94.44371202 157.86138434 94.36412581 152.640625 91.24609375 C151.62025146 90.64627686 150.59987793 90.04645996 149.54858398 89.4284668 C148.46005127 88.77144775 147.37151855 88.11442871 146.25 87.4375 C145.09984828 86.75620151 143.94887242 86.07629258 142.79711914 85.39770508 C140.39883433 83.98331607 138.00422488 82.56297574 135.61181641 81.13867188 C129.92276854 77.75987297 124.17630393 74.48085346 118.4375 71.1875 C112.61255432 67.83471426 106.78955936 64.48037474 101.01171875 61.046875 C100.26027588 60.60061768 99.50883301 60.15436035 98.73461914 59.69458008 C97.4124265 58.90671179 96.09226567 58.11541263 94.77514648 57.3190918 C91.03233525 55.08620794 87.21897111 53.10178428 83.3046875 51.18359375 C76.83459567 47.9818832 70.67813213 44.35255458 64.5 40.625 C62.12312222 39.20101787 59.74364865 37.78142117 57.36328125 36.36328125 C56.75772903 36.00233871 56.15217682 35.64139618 55.52827454 35.26951599 C49.54381473 31.71179273 43.50354157 28.2548789 37.45080566 24.81497192 C33.41553151 22.52084384 29.38584705 20.21689894 25.35498047 17.91503906 C23.1153799 16.63666423 20.87481622 15.35997523 18.63330078 14.08496094 C15.49883349 12.29716402 12.37336595 10.49460313 9.25 8.6875 C8.30858154 8.15423096 7.36716309 7.62096191 6.3972168 7.0715332 C5.5494165 6.57741943 4.70161621 6.08330566 3.828125 5.57421875 C3.0846582 5.14713623 2.34119141 4.72005371 1.57519531 4.2800293 C1.05538086 3.85761963 0.53556641 3.43520996 0 3 C0 2.01 0 1.02 0 0 Z " fill="#AD8761" transform="translate(25,250)"/>
<path d="M0 0 C2.03918801 25.05908669 2.03918801 25.05908669 -1.05029297 31.02978516 C-3.81184447 33.88109456 -7.34610621 35.1273309 -11.06542969 36.30322266 C-14.54642208 37.55697736 -17.59895898 39.58683869 -20.75 41.5 C-26.78956094 45 -26.78956094 45 -28 45 C-28.22363929 40.98060937 -28.38628486 36.96365228 -28.49438477 32.93945312 C-28.53946167 31.57325144 -28.6007517 30.2074797 -28.67895508 28.84277344 C-29.30823686 17.57328273 -29.30823686 17.57328273 -26.27075195 13.92041016 C-23.92078097 12.3370837 -21.57986766 11.16711244 -19 10 C-17.48048951 9.09270929 -15.97096654 8.16845147 -14.47265625 7.2265625 C-13.00420907 6.35666011 -11.53416115 5.48945402 -10.0625 4.625 C-8.93231445 3.95017578 -8.93231445 3.95017578 -7.77929688 3.26171875 C-6.69938477 2.62556641 -6.69938477 2.62556641 -5.59765625 1.9765625 C-4.95320557 1.59580566 -4.30875488 1.21504883 -3.64477539 0.82275391 C-2 0 -2 0 0 0 Z M-7.875 5.80859375 C-8.85984375 6.39060547 -9.8446875 6.97261719 -10.859375 7.57226562 C-11.89578125 8.18779297 -12.9321875 8.80332031 -14 9.4375 C-15.55460937 10.35499023 -15.55460937 10.35499023 -17.140625 11.29101562 C-21.82497419 13.79951491 -21.82497419 13.79951491 -26 17 C-26.08726223 18.78071246 -26.10699041 20.5648314 -26.09765625 22.34765625 C-26.09443359 23.42724609 -26.09121094 24.50683594 -26.08789062 25.61914062 C-26.07951172 26.75544922 -26.07113281 27.89175781 -26.0625 29.0625 C-26.05798828 30.20267578 -26.05347656 31.34285156 -26.04882812 32.51757812 C-26.03699747 35.34510351 -26.0205141 38.1725264 -26 41 C-12.52823699 36.86268387 -12.52823699 36.86268387 -2 28 C0.25104744 19.91911219 -0.89423227 11.20819888 -2 3 C-4.07369586 3 -6.16553161 4.79753157 -7.875 5.80859375 Z " fill="#CAB092" transform="translate(304,384)"/>
<path d="M0 0 C0.64746094 1.79907227 0.64746094 1.79907227 1 4 C-0.83457283 6.49975734 -2.65271857 8.67638198 -4.75 10.9375 C-5.9630102 12.28837092 -7.17523751 13.63994521 -8.38671875 14.9921875 C-8.99821777 15.66733398 -9.6097168 16.34248047 -10.23974609 17.03808594 C-12.7429886 19.82810768 -15.1562954 22.68884235 -17.5625 25.5625 C-21.38928529 30.10724445 -25.24899218 34.62218915 -29.125 39.125 C-32.706311 43.28680137 -36.23158293 47.4826937 -39.6875 51.75 C-48.6637827 62.77379245 -48.6637827 62.77379245 -53 67 C-53.66 67 -54.32 67 -55 67 C-53.31078858 62.91190847 -50.44517134 59.8437182 -47.5625 56.5625 C-46.47359025 55.30761097 -45.3850569 54.05239524 -44.296875 52.796875 C-43.47026367 51.84651367 -43.47026367 51.84651367 -42.62695312 50.87695312 C-40.16776878 48.03988691 -37.73703292 45.17919172 -35.3125 42.3125 C-34.85818604 41.77568604 -34.40387207 41.23887207 -33.93579102 40.68579102 C-30.34530639 36.43224845 -26.82315909 32.12505635 -23.30859375 27.80859375 C-20.3030369 24.15208719 -17.24394676 20.54275182 -14.18041992 16.93481445 C-9.41590343 11.32114291 -4.70462791 5.66392297 0 0 Z " fill="#C68E4D" transform="translate(486,168)"/>
<path d="M0 0 C3.48704771 3.36448013 6.52101581 6.82075753 9.4375 10.6875 C10.31058161 11.83770766 11.18431809 12.98741843 12.05859375 14.13671875 C12.52765137 14.75466309 12.99670898 15.37260742 13.47998047 16.00927734 C16.29317461 19.69363087 19.14955795 23.34444187 22 27 C26.89209275 33.28222793 31.76823374 39.57594863 36.61328125 45.89453125 C38.312594 48.10558467 40.01770765 50.31114976 41.73046875 52.51171875 C42.18325195 53.09526123 42.63603516 53.67880371 43.10253906 54.2800293 C44.35703663 55.89633057 45.61398192 57.51073119 46.87109375 59.125 C48.76186095 61.67840304 50.42449963 64.24414084 52 67 C48.77913274 66.75509535 47.91401553 65.90570855 45.6953125 63.47265625 C44.82844342 62.34361959 43.97242848 61.20620047 43.125 60.0625 C42.1460078 58.77851279 41.16683224 57.49466537 40.1875 56.2109375 C39.41212891 55.18371582 39.41212891 55.18371582 38.62109375 54.13574219 C36.40462543 51.21561194 34.14554121 48.32969415 31.88720703 45.44189453 C26.08877852 38.02395482 20.33956539 30.56821292 14.64233398 23.07226562 C12.11578775 19.74998454 9.57177422 16.4472242 6.96484375 13.1875 C6.4946582 12.59428955 6.02447266 12.0010791 5.54003906 11.38989258 C4.27695646 9.80009565 3.00407563 8.21809709 1.73046875 6.63671875 C0 4 0 4 0 0 Z " fill="#AA8661" transform="translate(61,168)"/>
<path d="M0 0 C0.495 1.98 0.495 1.98 1 4 C0.25129639 4.42708252 -0.49740723 4.85416504 -1.26879883 5.29418945 C-4.1410343 6.93298465 -7.01286519 8.57248589 -9.88458252 10.21218872 C-11.80721084 11.30948134 -13.73048478 12.40563598 -15.65380859 13.50170898 C-21.46339541 16.81538544 -27.26384721 20.14002874 -33.01953125 23.546875 C-33.89311279 24.06209717 -34.76669434 24.57731934 -35.66674805 25.1081543 C-37.27768701 26.06121452 -38.88479137 27.02079309 -40.48754883 27.98754883 C-42.29077153 29.05199814 -44.14111102 30.03605177 -46 31 C-46.66 30.67 -47.32 30.34 -48 30 C-45.53130845 27.24486564 -42.82225209 25.60028776 -39.6171875 23.77734375 C-38.53953125 23.16060791 -37.461875 22.54387207 -36.3515625 21.90844727 C-34.63066406 20.93282837 -34.63066406 20.93282837 -32.875 19.9375 C-30.51722009 18.59291033 -28.16104275 17.24552183 -25.8046875 15.8984375 C-25.22144714 15.56568314 -24.63820679 15.23292877 -24.03729248 14.89009094 C-18.28025835 11.60108665 -12.57653225 8.22365103 -6.90185547 4.79467773 C-2.21699652 2 -2.21699652 2 0 2 C0 1.34 0 0.68 0 0 Z " fill="#D1A672" transform="translate(480,227)"/>
<path d="M0 0 C0 0.66 0 1.32 0 2 C-8.09362723 3.75846137 -16.23315554 4.94968794 -24.4375 6.0625 C-25.68337891 6.23587891 -26.92925781 6.40925781 -28.21289062 6.58789062 C-35.46403474 7.58135446 -42.7038468 8.41980583 -50 9 C-50 8.34 -50 7.68 -50 7 C-44.91125046 5.4301908 -39.95943781 4.42685361 -34.6875 3.7109375 C-33.91494873 3.60278717 -33.14239746 3.49463684 -32.34643555 3.38320923 C-30.72316064 3.15730115 -29.09953537 2.93389767 -27.47558594 2.71289062 C-25.00608194 2.37583012 -22.53820696 2.02831565 -20.0703125 1.6796875 C-18.48446177 1.46030935 -16.89852682 1.24153893 -15.3125 1.0234375 C-14.58313232 0.92034271 -13.85376465 0.81724792 -13.10229492 0.71102905 C-8.69140106 0.11891533 -4.4507092 -0.09551817 0 0 Z " fill="#BE9569" transform="translate(322,320)"/>
<path d="M0 0 C0.05416188 1.60379341 0.09286638 3.20811406 0.125 4.8125 C0.14820313 5.70582031 0.17140625 6.59914063 0.1953125 7.51953125 C0 10 0 10 -2 13 C-2.45139459 15.0492094 -2.45139459 15.0492094 -2.625 17.1875 C-2.74875 18.445625 -2.8725 19.70375 -3 21 C-2.34 21.33 -1.68 21.66 -1 22 C-1.99 22.33 -2.98 22.66 -4 23 C-4 20.03 -4 17.06 -4 14 C-5.32 13.67 -6.64 13.34 -8 13 C-8.35471906 9.92576817 -8.52666346 7.05991472 -8 4 C-3.51219512 0 -3.51219512 0 0 0 Z " fill="#4B4F4D" transform="translate(409,327)"/>
<path d="M0 0 C0 0.99 0 1.98 0 3 C-0.64453125 3.17273438 -1.2890625 3.34546875 -1.953125 3.5234375 C-4.40445882 4.92982628 -4.40445882 4.92982628 -4.609375 8.4765625 C-4.67581781 9.858573 -4.7219252 11.2416781 -4.75 12.625 C-4.77964844 13.33140625 -4.80929687 14.0378125 -4.83984375 14.765625 C-4.91055357 16.50980047 -4.95754035 18.25490827 -5 20 C-5.33 20 -5.66 20 -6 20 C-6.33 15.71 -6.66 11.42 -7 7 C-8.32 7.33 -9.64 7.66 -11 8 C-9.04672006 1.97738686 -6.47971237 -0.53997603 0 0 Z " fill="#58574F" transform="translate(397,336)"/>
<path d="M0 0 C2.37590142 3.70416126 2.20500286 6.92984573 2.125 11.25 C2.10695313 12.51328125 2.08890625 13.7765625 2.0703125 15.078125 C2.04710937 16.04234375 2.02390625 17.0065625 2 18 C3.98 17.34 5.96 16.68 8 16 C5.81482901 18.40575607 3.74080329 19.79535581 0.8125 21.1875 C0.09707031 21.53167969 -0.61835938 21.87585938 -1.35546875 22.23046875 C-1.89816406 22.48441406 -2.44085938 22.73835938 -3 23 C-3 21 -3 21 -1 19 C-0.73974206 17.07888518 -0.73974206 17.07888518 -0.83984375 14.90234375 C-0.8562793 13.70061523 -0.8562793 13.70061523 -0.87304688 12.47460938 C-0.89431641 11.63736328 -0.91558594 10.80011719 -0.9375 9.9375 C-0.99922153 6.95429282 -1.02058442 3.98474033 -1 1 C-0.67 0.67 -0.34 0.34 0 0 Z " fill="#8A7655" transform="translate(416,323)"/>
<path d="M0 0 C2.49055871 3.76435592 2.03090984 6.86617377 1.625 11.25 C1.51414062 12.51328125 1.40328125 13.7765625 1.2890625 15.078125 C1.19367188 16.04234375 1.09828125 17.0065625 1 18 C0.67 18 0.34 18 0 18 C-0.19384179 15.18780295 -0.38036603 12.37545804 -0.5625 9.5625 C-0.61857422 8.76005859 -0.67464844 7.95761719 -0.73242188 7.13085938 C-0.8616295 5.08937889 -0.9351273 3.04453631 -1 1 C-0.67 0.67 -0.34 0.34 0 0 Z " fill="#676051" transform="translate(416,323)"/>
<path d="M0 0 C0.66 0.33 1.32 0.66 2 1 C1.67 6.61 1.34 12.22 1 18 C0.67 18 0.34 18 0 18 C-0.19484938 15.56288386 -0.38115178 13.12562602 -0.5625 10.6875 C-0.64661133 9.65206055 -0.64661133 9.65206055 -0.73242188 8.59570312 C-0.96581505 5.37487726 -1.03224218 3.09672655 0 0 Z " fill="#51524E" transform="translate(420,321)"/>
</svg>
